<mxfile host="app.diagrams.net" agent="Mozilla/5.0 (Windows NT 10.0; Win64; x64) AppleWebKit/537.36 (KHTML, like Gecko) Chrome/130.0.0.0 Safari/537.36" version="24.8.1">
  <diagram id="dSgUlxQd1BEP744HVG_0" name="Page-1">
    <mxGraphModel dx="1969" dy="868" grid="1" gridSize="10" guides="1" tooltips="1" connect="1" arrows="1" fold="1" page="1" pageScale="1" pageWidth="2000" pageHeight="2000" math="0" shadow="0">
      <root>
        <mxCell id="0" />
        <mxCell id="1" parent="0" />
        <mxCell id="FrvuthwDZcVimLYc2ItU-106" value="" style="rounded=0;whiteSpace=wrap;html=1;fontSize=11;strokeColor=#000000;strokeWidth=3;fillColor=#FFE1B5;" parent="1" vertex="1">
          <mxGeometry x="150" y="120" width="630" height="650" as="geometry" />
        </mxCell>
        <mxCell id="FrvuthwDZcVimLYc2ItU-107" value="" style="rounded=0;whiteSpace=wrap;html=1;fontSize=11;strokeColor=#000000;strokeWidth=3;fillColor=#D5E8D4;" parent="1" vertex="1">
          <mxGeometry x="470" y="120" width="310" height="290" as="geometry" />
        </mxCell>
        <mxCell id="FrvuthwDZcVimLYc2ItU-5" style="edgeStyle=orthogonalEdgeStyle;rounded=0;orthogonalLoop=1;jettySize=auto;html=1;entryX=0;entryY=0.5;entryDx=0;entryDy=0;fontSize=11;" parent="1" source="FrvuthwDZcVimLYc2ItU-1" target="FrvuthwDZcVimLYc2ItU-4" edge="1">
          <mxGeometry relative="1" as="geometry" />
        </mxCell>
        <mxCell id="FrvuthwDZcVimLYc2ItU-1" value="&lt;font style=&quot;font-size: 11px&quot;&gt;Holovibes&lt;/font&gt;" style="rhombus;whiteSpace=wrap;html=1;fillColor=none;" parent="1" vertex="1">
          <mxGeometry x="170" y="395" width="100" height="100" as="geometry" />
        </mxCell>
        <mxCell id="FrvuthwDZcVimLYc2ItU-3" value="ThreadWorkerController" style="swimlane;fontSize=11;fillColor=none;" parent="1" vertex="1">
          <mxGeometry x="330" y="370" width="120" height="130" as="geometry" />
        </mxCell>
        <mxCell id="FrvuthwDZcVimLYc2ItU-4" value="ComputeWorker" style="rhombus;whiteSpace=wrap;html=1;fontSize=11;fillColor=none;" parent="FrvuthwDZcVimLYc2ItU-3" vertex="1">
          <mxGeometry y="20" width="120" height="110" as="geometry" />
        </mxCell>
        <mxCell id="FrvuthwDZcVimLYc2ItU-6" value="Start / Stop" style="text;html=1;align=center;verticalAlign=middle;resizable=0;points=[];autosize=1;strokeColor=none;fillColor=none;fontSize=11;" parent="1" vertex="1">
          <mxGeometry x="250" y="410" width="70" height="20" as="geometry" />
        </mxCell>
        <mxCell id="FrvuthwDZcVimLYc2ItU-97" style="edgeStyle=orthogonalEdgeStyle;rounded=0;orthogonalLoop=1;jettySize=auto;html=1;entryX=0.75;entryY=1;entryDx=0;entryDy=0;fontSize=11;strokeColor=default;strokeWidth=1;exitX=0.5;exitY=0;exitDx=0;exitDy=0;" parent="1" source="RxIXFcr-SAbp_aFiW9gk-1" target="FrvuthwDZcVimLYc2ItU-50" edge="1">
          <mxGeometry relative="1" as="geometry">
            <Array as="points">
              <mxPoint x="653" y="585" />
              <mxPoint x="653" y="570" />
            </Array>
          </mxGeometry>
        </mxCell>
        <mxCell id="RxIXFcr-SAbp_aFiW9gk-9" style="edgeStyle=orthogonalEdgeStyle;rounded=0;orthogonalLoop=1;jettySize=auto;html=1;exitX=0.353;exitY=0;exitDx=0;exitDy=0;entryX=0;entryY=0.5;entryDx=0;entryDy=0;exitPerimeter=0;" parent="1" source="FrvuthwDZcVimLYc2ItU-8" target="RxIXFcr-SAbp_aFiW9gk-1" edge="1">
          <mxGeometry relative="1" as="geometry" />
        </mxCell>
        <mxCell id="FrvuthwDZcVimLYc2ItU-8" value="&lt;b&gt;fn_compute_vect&lt;/b&gt;&lt;br&gt;&lt;i&gt;Run all computations&lt;br&gt;&lt;/i&gt;" style="rounded=0;whiteSpace=wrap;html=1;fontSize=11;fillColor=none;" parent="1" vertex="1">
          <mxGeometry x="540" y="680" width="110" height="40" as="geometry" />
        </mxCell>
        <mxCell id="FrvuthwDZcVimLYc2ItU-13" value="Start / Stop" style="text;html=1;align=center;verticalAlign=middle;resizable=0;points=[];autosize=1;strokeColor=none;fillColor=none;fontSize=11;" parent="1" vertex="1">
          <mxGeometry x="440" y="510" width="70" height="20" as="geometry" />
        </mxCell>
        <mxCell id="FrvuthwDZcVimLYc2ItU-25" value="" style="edgeStyle=orthogonalEdgeStyle;rounded=0;orthogonalLoop=1;jettySize=auto;html=1;fontSize=11;strokeColor=default;entryX=0.135;entryY=0.02;entryDx=0;entryDy=0;entryPerimeter=0;" parent="1" source="FrvuthwDZcVimLYc2ItU-14" target="FrvuthwDZcVimLYc2ItU-8" edge="1">
          <mxGeometry relative="1" as="geometry" />
        </mxCell>
        <mxCell id="FrvuthwDZcVimLYc2ItU-14" value="Pipe" style="rhombus;whiteSpace=wrap;html=1;fontSize=11;fillColor=none;" parent="1" vertex="1">
          <mxGeometry x="505" y="455" width="100" height="100" as="geometry" />
        </mxCell>
        <mxCell id="FrvuthwDZcVimLYc2ItU-51" style="edgeStyle=orthogonalEdgeStyle;rounded=0;orthogonalLoop=1;jettySize=auto;html=1;fontSize=11;strokeColor=default;strokeWidth=1;" parent="1" source="FrvuthwDZcVimLYc2ItU-29" target="FrvuthwDZcVimLYc2ItU-50" edge="1">
          <mxGeometry relative="1" as="geometry" />
        </mxCell>
        <mxCell id="FrvuthwDZcVimLYc2ItU-29" value="&lt;div style=&quot;font-size: 15px;&quot;&gt;Holovibes settings&lt;/div&gt;" style="whiteSpace=wrap;html=1;fontSize=15;fillColor=none;" parent="1" vertex="1">
          <mxGeometry x="540" y="200" width="180" height="90" as="geometry" />
        </mxCell>
        <mxCell id="FrvuthwDZcVimLYc2ItU-32" style="edgeStyle=orthogonalEdgeStyle;rounded=0;orthogonalLoop=1;jettySize=auto;html=1;entryX=0;entryY=0.5;entryDx=0;entryDy=0;fontSize=11;strokeColor=default;strokeWidth=1;" parent="1" source="FrvuthwDZcVimLYc2ItU-4" target="FrvuthwDZcVimLYc2ItU-14" edge="1">
          <mxGeometry relative="1" as="geometry" />
        </mxCell>
        <mxCell id="FrvuthwDZcVimLYc2ItU-38" value="ThreadWorkerController" style="swimlane;fontSize=11;fillColor=none;" parent="1" vertex="1">
          <mxGeometry x="330" y="130" width="120" height="130" as="geometry" />
        </mxCell>
        <mxCell id="FrvuthwDZcVimLYc2ItU-39" value="&lt;div&gt;FrameReadWorker&lt;br&gt;&lt;/div&gt;&lt;div&gt;(File - Camera)&lt;/div&gt;" style="rhombus;whiteSpace=wrap;html=1;fontSize=11;fillColor=none;" parent="FrvuthwDZcVimLYc2ItU-38" vertex="1">
          <mxGeometry y="20" width="120" height="110" as="geometry" />
        </mxCell>
        <mxCell id="FrvuthwDZcVimLYc2ItU-47" value="" style="strokeWidth=1;html=1;shape=mxgraph.flowchart.direct_data;whiteSpace=wrap;fontSize=11;direction=south;strokeColor=#000000;fillColor=none;" parent="1" vertex="1">
          <mxGeometry x="370" y="270" width="40" height="90" as="geometry" />
        </mxCell>
        <mxCell id="FrvuthwDZcVimLYc2ItU-48" value="Input queue" style="text;html=1;align=center;verticalAlign=middle;resizable=0;points=[];autosize=1;strokeColor=none;fillColor=none;fontSize=11;" parent="1" vertex="1">
          <mxGeometry x="285" y="300" width="80" height="30" as="geometry" />
        </mxCell>
        <mxCell id="FrvuthwDZcVimLYc2ItU-100" style="edgeStyle=orthogonalEdgeStyle;rounded=0;orthogonalLoop=1;jettySize=auto;html=1;exitX=1;exitY=0.5;exitDx=0;exitDy=0;fontSize=11;strokeColor=default;strokeWidth=1;" parent="1" source="FrvuthwDZcVimLYc2ItU-50" target="FrvuthwDZcVimLYc2ItU-84" edge="1">
          <mxGeometry relative="1" as="geometry" />
        </mxCell>
        <mxCell id="FrvuthwDZcVimLYc2ItU-50" value="DelayedSettings" style="rounded=0;whiteSpace=wrap;html=1;fontSize=11;strokeColor=#000000;strokeWidth=1;fillColor=none;" parent="1" vertex="1">
          <mxGeometry x="585" y="360" width="90" height="30" as="geometry" />
        </mxCell>
        <mxCell id="FrvuthwDZcVimLYc2ItU-52" value="Synchronize" style="text;html=1;align=center;verticalAlign=middle;resizable=0;points=[];autosize=1;strokeColor=none;fillColor=none;fontSize=11;" parent="1" vertex="1">
          <mxGeometry x="630" y="310" width="80" height="20" as="geometry" />
        </mxCell>
        <mxCell id="FrvuthwDZcVimLYc2ItU-53" style="edgeStyle=orthogonalEdgeStyle;rounded=0;orthogonalLoop=1;jettySize=auto;html=1;fontSize=11;strokeColor=default;strokeWidth=1;" parent="1" target="FrvuthwDZcVimLYc2ItU-50" edge="1">
          <mxGeometry relative="1" as="geometry">
            <mxPoint x="420" y="417" as="sourcePoint" />
            <Array as="points">
              <mxPoint x="500" y="417" />
              <mxPoint x="500" y="375" />
            </Array>
          </mxGeometry>
        </mxCell>
        <mxCell id="FrvuthwDZcVimLYc2ItU-54" value="Get / Set" style="text;html=1;align=center;verticalAlign=middle;resizable=0;points=[];autosize=1;strokeColor=none;fillColor=none;fontSize=11;" parent="1" vertex="1">
          <mxGeometry x="505" y="350" width="60" height="20" as="geometry" />
        </mxCell>
        <mxCell id="FrvuthwDZcVimLYc2ItU-56" value="" style="strokeWidth=1;html=1;shape=mxgraph.flowchart.direct_data;whiteSpace=wrap;fontSize=11;direction=south;strokeColor=#000000;fillColor=none;" parent="1" vertex="1">
          <mxGeometry x="370" y="510" width="40" height="90" as="geometry" />
        </mxCell>
        <mxCell id="FrvuthwDZcVimLYc2ItU-57" value="Record queue" style="text;html=1;align=center;verticalAlign=middle;resizable=0;points=[];autosize=1;strokeColor=none;fillColor=none;fontSize=11;" parent="1" vertex="1">
          <mxGeometry x="275" y="540" width="90" height="30" as="geometry" />
        </mxCell>
        <mxCell id="FrvuthwDZcVimLYc2ItU-59" value="ThreadWorkerController" style="swimlane;fontSize=11;fillColor=none;" parent="1" vertex="1">
          <mxGeometry x="330" y="610" width="120" height="130" as="geometry" />
        </mxCell>
        <mxCell id="FrvuthwDZcVimLYc2ItU-60" value="&lt;div&gt;OutputWorker&lt;br&gt;&lt;/div&gt;&lt;div&gt;(Display - Record)&lt;/div&gt;" style="rhombus;whiteSpace=wrap;html=1;fontSize=11;fillColor=none;" parent="FrvuthwDZcVimLYc2ItU-59" vertex="1">
          <mxGeometry y="20" width="120" height="110" as="geometry" />
        </mxCell>
        <mxCell id="FrvuthwDZcVimLYc2ItU-69" style="edgeStyle=orthogonalEdgeStyle;rounded=0;orthogonalLoop=1;jettySize=auto;html=1;exitX=1;exitY=0.5;exitDx=0;exitDy=0;exitPerimeter=0;fontSize=11;strokeColor=default;strokeWidth=1;" parent="1" edge="1">
          <mxGeometry relative="1" as="geometry">
            <mxPoint x="380" y="600" as="sourcePoint" />
            <mxPoint x="380" y="600" as="targetPoint" />
          </mxGeometry>
        </mxCell>
        <mxCell id="FrvuthwDZcVimLYc2ItU-72" value="Run all&lt;br&gt;(loop)" style="text;html=1;align=center;verticalAlign=middle;resizable=0;points=[];autosize=1;strokeColor=none;fillColor=none;fontSize=11;" parent="1" vertex="1">
          <mxGeometry x="600" y="640" width="50" height="30" as="geometry" />
        </mxCell>
        <mxCell id="FrvuthwDZcVimLYc2ItU-76" value="Exec" style="text;html=1;align=center;verticalAlign=middle;resizable=0;points=[];autosize=1;strokeColor=none;fillColor=none;fontSize=11;" parent="1" vertex="1">
          <mxGeometry x="510" y="565" width="40" height="20" as="geometry" />
        </mxCell>
        <mxCell id="RxIXFcr-SAbp_aFiW9gk-4" style="edgeStyle=orthogonalEdgeStyle;rounded=0;orthogonalLoop=1;jettySize=auto;html=1;exitX=0.5;exitY=1;exitDx=0;exitDy=0;entryX=0.75;entryY=1;entryDx=0;entryDy=0;" parent="1" source="FrvuthwDZcVimLYc2ItU-84" target="FrvuthwDZcVimLYc2ItU-8" edge="1">
          <mxGeometry relative="1" as="geometry" />
        </mxCell>
        <mxCell id="FrvuthwDZcVimLYc2ItU-84" value="Refresh" style="rounded=0;whiteSpace=wrap;html=1;fontSize=11;strokeColor=#000000;strokeWidth=1;fillColor=none;" parent="1" vertex="1">
          <mxGeometry x="700" y="520" width="70" height="25" as="geometry" />
        </mxCell>
        <mxCell id="FrvuthwDZcVimLYc2ItU-90" value="Yes" style="text;html=1;align=center;verticalAlign=middle;resizable=0;points=[];autosize=1;strokeColor=none;fillColor=none;fontSize=11;" parent="1" vertex="1">
          <mxGeometry x="610" y="555" width="40" height="30" as="geometry" />
        </mxCell>
        <mxCell id="FrvuthwDZcVimLYc2ItU-99" value="Apply &lt;br&gt;settings&lt;br&gt;update at &lt;br&gt;end of pipe" style="text;html=1;align=center;verticalAlign=middle;resizable=0;points=[];autosize=1;strokeColor=none;fillColor=none;fontSize=11;" parent="1" vertex="1">
          <mxGeometry x="660" y="425" width="80" height="70" as="geometry" />
        </mxCell>
        <mxCell id="FrvuthwDZcVimLYc2ItU-104" value="Insert computations" style="text;html=1;align=center;verticalAlign=middle;resizable=0;points=[];autosize=1;strokeColor=none;fillColor=none;fontSize=11;" parent="1" vertex="1">
          <mxGeometry x="617" y="738" width="120" height="30" as="geometry" />
        </mxCell>
        <mxCell id="FrvuthwDZcVimLYc2ItU-108" value="&lt;font style=&quot;font-size: 20px&quot;&gt;&lt;b&gt;State&lt;/b&gt;&lt;/font&gt;" style="text;html=1;strokeColor=none;fillColor=none;align=center;verticalAlign=middle;whiteSpace=wrap;rounded=0;labelBackgroundColor=none;fontSize=14;fontColor=default;" parent="1" vertex="1">
          <mxGeometry x="690" y="120" width="90" height="50" as="geometry" />
        </mxCell>
        <mxCell id="FrvuthwDZcVimLYc2ItU-110" value="&lt;font style=&quot;font-size: 20px&quot;&gt;&lt;b&gt;&lt;font style=&quot;font-size: 20px&quot;&gt;Backend&lt;/font&gt;&lt;/b&gt;&lt;/font&gt;" style="text;html=1;strokeColor=none;fillColor=none;align=center;verticalAlign=middle;whiteSpace=wrap;rounded=0;labelBackgroundColor=none;fontSize=14;fontColor=default;" parent="1" vertex="1">
          <mxGeometry x="160" y="120" width="90" height="50" as="geometry" />
        </mxCell>
        <mxCell id="RxIXFcr-SAbp_aFiW9gk-5" style="edgeStyle=orthogonalEdgeStyle;rounded=0;orthogonalLoop=1;jettySize=auto;html=1;exitX=0.75;exitY=1;exitDx=0;exitDy=0;entryX=1;entryY=0.5;entryDx=0;entryDy=0;" parent="1" source="RxIXFcr-SAbp_aFiW9gk-1" target="FrvuthwDZcVimLYc2ItU-8" edge="1">
          <mxGeometry relative="1" as="geometry">
            <Array as="points">
              <mxPoint x="680" y="625" />
              <mxPoint x="680" y="700" />
            </Array>
          </mxGeometry>
        </mxCell>
        <mxCell id="RxIXFcr-SAbp_aFiW9gk-1" value="Refresh requested ?" style="rounded=0;whiteSpace=wrap;html=1;fontSize=11;fillColor=none;" parent="1" vertex="1">
          <mxGeometry x="600" y="585" width="110" height="40" as="geometry" />
        </mxCell>
        <mxCell id="RJwHDaTBxqRJ5WSODAOr-1" value="No" style="text;html=1;align=center;verticalAlign=middle;resizable=0;points=[];autosize=1;strokeColor=none;fillColor=none;fontSize=11;" vertex="1" parent="1">
          <mxGeometry x="680" y="625" width="40" height="30" as="geometry" />
        </mxCell>
      </root>
    </mxGraphModel>
  </diagram>
</mxfile>
